<svg width="200" height="200" viewBox="0 0 200 200" fill="none" xmlns="http://www.w3.org/2000/svg">
<path fill-rule="evenodd" clip-rule="evenodd" d="M198.942 114.596C198.402 118.289 197.661 121.916 196.728 125.466H3.27155C2.33948 121.916 1.59765 118.289 1.05762 114.596H198.942ZM199.416 110.87C199.802 107.299 200 103.673 200 100H0C0 103.673 0.198004 107.299 0.583919 110.87H199.416ZM13.1993 149.689C11.1937 146.194 9.39326 142.565 7.81433 138.82H192.186C190.607 142.565 188.806 146.194 186.801 149.689H13.1993ZM15.4465 153.416C17.4952 156.652 19.7244 159.763 22.1202 162.733H177.88C180.276 159.763 182.505 156.652 184.553 153.416H15.4465ZM33.3304 174.534C30.4961 171.997 27.8074 169.301 25.2784 166.46H174.722C172.193 169.301 169.504 171.997 166.67 174.534H33.3304ZM36.214 177.019C37.7688 178.308 39.3632 179.551 40.9953 180.745H159.005C160.637 179.551 162.231 178.308 163.786 177.019H36.214ZM46.4554 184.472C50.5002 187.041 54.742 189.328 59.1531 191.304H140.847C145.258 189.328 149.5 187.041 153.545 184.472H46.4554ZM100 200C89.099 200 78.6054 198.256 68.7831 195.031H131.217C121.395 198.256 110.901 200 100 200ZM4.3282 129.193C4.93587 131.187 5.60417 133.154 6.33096 135.093H193.669C194.396 133.154 195.064 131.187 195.672 129.193H4.3282ZM0.0681545 96.2733C0.246145 91.415 0.770723 86.6451 1.6179 81.9877H198.382C199.229 86.6451 199.754 91.415 199.932 96.2733H0.0681545ZM100 0C52.2372 0 12.2954 33.4854 2.36959 78.2609H197.63C187.705 33.4854 147.763 0 100 0Z" fill="url(#paint0_linear)"/>
<defs>
<linearGradient id="paint0_linear" x1="100" y1="0" x2="100" y2="200" gradientUnits="userSpaceOnUse">
<stop stop-color="#FAEB2B"/>
<stop offset="1" stop-color="#FB2D8F"/>
</linearGradient>
</defs>
</svg>
